Coordinates
version=1
nRows=15
nColumns=63
inDegrees=yes

Units are S.I. units (second, meters, Newtons, ...)
If the header above contains a line with 'inDegrees', this indicates whether rotational values are in degrees (yes) or radians (no).

endheader
time	pelvis_tilt	pelvis_list	pelvis_rotation	pelvis_tx	pelvis_ty	pelvis_tz	hip_flexion_r	hip_adduction_r	hip_rotation_r	knee_angle_r	knee_angle_r_beta	ankle_angle_r	subtalar_angle_r	mtp_angle_r	hip_flexion_l	hip_adduction_l	hip_rotation_l	knee_angle_l	knee_angle_l_beta	ankle_angle_l	subtalar_angle_l	mtp_angle_l	L5_S1_Flex_Ext	L5_S1_Lat_Bending	L5_S1_axial_rotation	L4_L5_Flex_Ext	L4_L5_Lat_Bending	L4_L5_axial_rotation	L3_L4_Flex_Ext	L3_L4_Lat_Bending	L3_L4_axial_rotation	L2_L3_Flex_Ext	L2_L3_Lat_Bending	L2_L3_axial_rotation	L1_L2_Flex_Ext	L1_L2_Lat_Bending	L1_L2_axial_rotation	L1_T12_Flex_Ext	L1_T12_Lat_Bending	L1_T12_axial_rotation	Abs_r3	Abs_r2	Abs_r1	Abs_t1	Abs_t2	neck_flexion	neck_bending	neck_rotation	arm_flex_r	arm_add_r	arm_rot_r	elbow_flex_r	pro_sup_r	wrist_flex_r	wrist_dev_r	arm_flex_l	arm_add_l	arm_rot_l	elbow_flex_l	pro_sup_l	wrist_flex_l	wrist_dev_l
0.000000	1.734977	-4.721507	92.499534	0.308245	0.927288	0.626105	6.888862	0.511904	-3.551431	1.577097	0.027526	15.708537	-12.287878	0.000000	12.279980	-1.912583	11.738223	6.052785	0.105641	29.429227	16.037773	0.000000	0.374348	0.344020	-1.956736	0.695201	0.457547	-2.079032	0.615016	0.836450	-2.079032	0.427842	0.836450	-1.712144	0.347619	0.701526	-1.589848	0.213902	0.532887	-1.467552	2.673928	3.891624	-10.882779	0.000000	0.000000	28.239686	9.479454	7.820704	12.603129	-14.628642	59.900310	47.793480	46.353401	15.582022	15.942530	9.594717	-14.360404	50.766201	53.203000	63.285716	10.853389	2.104908
0.016949	2.335460	-4.236361	93.915825	0.306442	0.929288	0.623874	6.533269	0.958433	-4.076187	1.521453	0.026554	18.754970	-11.077378	0.000000	11.748377	-2.336370	13.301356	5.705559	0.099581	29.445716	15.808059	0.000000	0.356616	0.420462	-2.111685	0.662271	0.559214	-2.243666	0.585884	1.022311	-2.243666	0.407576	1.022311	-1.847725	0.331153	0.857406	-1.715744	0.203770	0.651296	-1.583764	2.547270	4.756350	-11.744561	0.000000	0.000000	28.215605	9.401183	7.675989	12.274622	-15.230148	59.492790	48.194379	45.288087	15.972433	15.263043	9.656585	-14.079287	52.163402	52.713240	62.119634	10.539221	0.254138
0.033898	2.792202	-3.876890	94.959895	0.305133	0.930869	0.622122	6.315550	1.294008	-4.675450	1.568691	0.027379	21.244786	-9.829488	0.000000	11.352478	-2.672420	14.440845	5.482523	0.095688	29.417353	15.607063	0.000000	0.345872	0.480997	-2.212670	0.642319	0.639726	-2.350962	0.568234	1.169497	-2.350962	0.395297	1.169497	-1.936086	0.321177	0.980849	-1.797794	0.197631	0.745065	-1.659502	2.470531	5.441137	-12.306205	0.000000	0.000000	28.201427	9.329318	7.486097	11.897395	-15.666294	58.871531	48.539750	44.151604	16.140255	14.889231	9.763341	-13.796305	53.247468	52.320720	60.997275	10.262956	-0.928017
0.050847	3.118887	-3.631371	95.666423	0.304272	0.932071	0.620807	6.220524	1.529895	-5.322200	1.701550	0.029698	23.225363	-8.567896	0.000000	11.078705	-2.928903	15.197238	5.366633	0.093665	29.351304	15.433649	0.000000	0.341287	0.527094	-2.264881	0.633805	0.701035	-2.406436	0.560701	1.281576	-2.406436	0.390057	1.281576	-1.981771	0.316920	1.074850	-1.840216	0.195012	0.816468	-1.698661	2.437782	5.962590	-12.596589	0.000000	0.000000	28.195970	9.259749	7.257793	11.481682	-15.954733	58.069507	48.831968	42.993010	16.113466	14.774626	9.907909	-13.513566	54.047692	52.014505	59.929341	10.023370	-1.520514
0.067797	3.329199	-3.488083	96.070085	0.303810	0.932934	0.619890	6.233010	1.677362	-5.989419	1.902767	0.033210	24.744077	-7.316289	0.000000	10.913477	-3.113991	15.611082	5.340842	0.093215	29.254733	15.286686	0.000000	0.342031	0.560220	-2.273512	0.635186	0.745092	-2.415606	0.561923	1.362118	-2.415606	0.390908	1.362118	-1.989323	0.317610	1.142400	-1.847228	0.195437	0.867780	-1.705134	2.443096	6.337316	-12.644589	0.000000	0.000000	28.198049	9.188366	6.997839	11.037717	-16.113122	57.119694	49.073410	41.861365	15.920046	14.872760	10.083212	-13.233174	54.593369	51.783665	58.926532	9.819242	-1.602311
0.084746	3.436822	-3.435302	96.205560	0.303699	0.933498	0.619328	6.337828	1.747675	-6.650087	2.155080	0.037613	25.848305	-6.098355	0.000000	10.843213	-3.235856	15.722923	5.388106	0.094040	29.134803	15.165038	0.000000	0.347274	0.581843	-2.243753	0.644923	0.773851	-2.383988	0.570536	1.414692	-2.383988	0.396899	1.414692	-1.963284	0.322479	1.186494	-1.823050	0.198432	0.901274	-1.682815	2.480544	6.581921	-12.479083	0.000000	0.000000	28.206482	9.111060	6.712999	10.575737	-16.159115	56.055067	49.266450	40.805727	15.587973	15.137168	10.282174	-12.957238	54.913791	51.617265	57.999548	9.649348	-1.252365
0.101695	3.455441	-3.461306	96.107525	0.303893	0.933802	0.619081	6.519795	1.752101	-7.277185	2.441226	0.042607	26.585425	-4.937783	0.000000	10.854333	-3.302668	15.573310	5.491380	0.095843	28.998679	15.067573	0.000000	0.356185	0.593431	-2.180799	0.661472	0.789263	-2.317099	0.585177	1.442868	-2.317099	0.407084	1.442868	-1.908199	0.330754	1.210125	-1.771899	0.203524	0.919225	-1.635599	2.544197	6.713011	-12.128948	0.000000	0.000000	28.220086	9.023722	6.410037	10.105975	-16.110365	54.908602	49.413464	39.875155	15.145226	15.521380	10.497719	-12.687863	55.038252	51.504374	57.159092	9.512465	-0.549634
0.118644	3.398740	-3.554372	95.810660	0.304343	0.933887	0.619107	6.763733	1.701908	-7.843695	2.743943	0.047891	27.002814	-3.858258	0.000000	10.933256	-3.322599	15.202788	5.633617	0.098325	28.853524	14.993156	0.000000	0.367936	0.596453	-2.089839	0.683293	0.793282	-2.220454	0.604482	1.450215	-2.220454	0.420514	1.450215	-1.828610	0.341665	1.216287	-1.697995	0.210238	0.923905	-1.567380	2.628128	6.747193	-11.623060	0.000000	0.000000	28.237679	8.922241	6.095715	9.638666	-15.984529	53.713274	49.516827	39.118708	14.619784	15.978931	10.722769	-12.427155	54.996047	51.434058	56.415863	9.407372	0.426925
0.135593	3.280403	-3.702778	95.349640	0.305001	0.933792	0.619367	7.054458	1.608362	-8.322597	3.045970	0.053162	27.147848	-2.883470	0.000000	11.066403	-3.303821	14.651906	5.797773	0.101190	28.706503	14.940655	0.000000	0.381695	0.592376	-1.976068	0.708845	0.787860	-2.099572	0.627086	1.440302	-2.099572	0.436239	1.440302	-1.729059	0.354442	1.207973	-1.605555	0.218100	0.917590	-1.482051	2.726408	6.701073	-10.990297	0.000000	0.000000	28.258076	8.802507	5.776797	9.184046	-15.799259	52.502058	49.578916	38.585444	14.039627	16.463353	10.950249	-12.177221	54.816468	51.395385	55.780562	9.332845	1.598354
0.152542	3.114115	-3.894801	94.759145	0.305820	0.933558	0.619819	7.376791	1.482730	-8.686873	3.330044	0.058120	27.067905	-2.037106	0.000000	11.240193	-3.254505	13.961210	5.966803	0.104140	28.564781	14.908935	0.000000	0.396633	0.582668	-1.844676	0.736587	0.774948	-1.959969	0.651628	1.416699	-1.959969	0.453312	1.416699	-1.614092	0.368313	1.188177	-1.498799	0.226636	0.902553	-1.383507	2.833109	6.591257	-10.259536	0.000000	0.000000	28.280095	8.660412	5.460047	8.752349	-15.572212	51.307929	49.602105	38.324422	13.432734	16.928179	11.173082	-11.940167	54.528810	51.377423	55.263891	9.287662	2.885695
0.169492	2.913558	-4.118718	94.073852	0.306751	0.933225	0.620422	7.715551	1.336279	-8.909504	3.578902	0.062464	26.810362	-1.342854	0.000000	11.441045	-3.182822	13.171248	6.123661	0.106878	28.435520	14.896863	0.000000	0.411920	0.568798	-1.700857	0.764976	0.756501	-1.807160	0.676743	1.382974	-1.807160	0.470783	1.382974	-1.488249	0.382509	1.159892	-1.381946	0.235371	0.881067	-1.275642	2.942303	6.434352	-9.459654	0.000000	0.000000	28.302553	8.491845	5.152228	8.353810	-15.321041	50.163863	49.588771	38.384700	12.827083	17.326942	11.384192	-11.718100	54.162366	51.369237	54.876550	9.270600	4.209992
0.186441	2.712500	-4.340490	93.374973	0.307709	0.932913	0.620986	8.010525	1.206867	-8.886621	3.736616	0.065216	26.295932	-0.921432	0.000000	11.618288	-3.112477	12.407042	6.189369	0.108025	28.409053	14.898084	0.000000	0.425892	0.554219	-1.548930	0.790923	0.737111	-1.645738	0.699697	1.347528	-1.645738	0.486751	1.347528	-1.355314	0.395483	1.130163	-1.258506	0.243354	0.858485	-1.161698	3.042101	6.269437	-8.614685	0.000000	0.000000	28.322209	8.255033	4.846408	8.014230	-15.122039	49.155057	49.567909	39.451754	12.371577	17.614032	11.572895	-11.515949	53.927952	51.312243	54.591246	9.240437	5.214010
0.203390	2.523900	-4.556435	92.686825	0.308616	0.932642	0.621598	8.268283	1.093660	-8.582208	3.763594	0.065687	26.017394	-0.646641	0.000000	11.780050	-3.043436	11.688569	6.191782	0.108067	28.405127	14.931324	0.000000	0.437220	0.540499	-1.405833	0.811962	0.718863	-1.493698	0.718309	1.314168	-1.493698	0.499699	1.314168	-1.230104	0.406003	1.102185	-1.142239	0.249828	0.837232	-1.054375	3.123022	6.114229	-7.818822	0.000000	0.000000	28.339625	7.900289	4.491298	7.724373	-14.939321	48.296981	49.502114	40.836741	11.966447	17.608886	11.725646	-11.326855	53.660758	51.214363	54.530755	9.273237	6.073476
0.220339	2.361301	-4.771535	92.013364	0.309429	0.932422	0.622275	8.508183	1.007436	-7.899207	3.678635	0.064204	25.797373	-0.713632	0.000000	11.933892	-2.991369	10.985734	6.119046	0.106798	28.406870	15.007795	0.000000	0.446014	0.530531	-1.274963	0.828292	0.705606	-1.354648	0.732756	1.289932	-1.354648	0.509749	1.289932	-1.115593	0.414168	1.081858	-1.035907	0.254852	0.821792	-0.956222	3.185830	6.001468	-7.090961	0.000000	0.000000	28.353610	7.537155	4.242001	7.534951	-14.792071	47.670739	49.386957	42.746082	11.645435	17.254759	11.820289	-11.146487	53.345422	51.083190	54.726987	9.367900	6.723677
0.237288	2.223512	-4.981410	91.391328	0.310118	0.932244	0.623007	8.727220	0.943758	-6.991683	3.495627	0.061010	25.596261	-1.013779	0.000000	12.084064	-2.952097	10.298712	5.978313	0.104341	28.438285	15.167991	0.000000	0.452361	0.523695	-1.150618	0.840080	0.696514	-1.222532	0.743184	1.273311	-1.222532	0.517004	1.273311	-1.006791	0.420063	1.067918	-0.934877	0.258479	0.811203	-0.862963	3.231170	5.924138	-6.399392	0.000000	0.000000	28.364991	7.122604	4.045875	7.399541	-14.682479	47.137382	49.245720	45.465793	11.478604	16.523772	11.919769	-10.992883	53.165978	50.908939	54.986328	9.586139	7.123593
